<svg xmlns="http://www.w3.org/2000/svg" preserveAspectRatio="xMidYMid" width="24" height="24"><defs><linearGradient id="a" x1=".741" x2="590.863" y1="3.666" y2="593.787" gradientUnits="userSpaceOnUse" gradientTransform="matrix(.03734 0 0 .025 .878 3.918)"><stop offset="0" stop-color="#8a9295"/><stop offset="1" stop-color="#3e3e42"/></linearGradient></defs><path d="M11.923 18.767C5.84 18.767.906 15.464.906 11.39c0-4.076 4.933-7.38 11.017-7.38 6.085 0 11.018 3.304 11.018 7.38 0 4.075-4.933 7.378-11.018 7.378zM13.61 6.895c-4.625 0-8.374 2.258-8.374 5.044 0 2.786 3.749 5.045 8.374 5.045s8.038-1.544 8.038-5.045c0-3.5-3.413-5.044-8.038-5.044z" fill="url(#a)" fill-rule="evenodd"/><path d="M17.69 15.622s.667.194 1.054.384c.134.066.366.197.534.37.164.168.244.339.244.339L22.146 21l-4.242.002-1.983-3.607c-.299-.529-.847-1.075-1.16-1.41h-.804L13.958 21 10 21.001V9h7.538s3.433.06 3.433 3.223-3.28 3.399-3.28 3.399zm-1.632-4.632l-2.068-.001-.001 3.006h2.069s1.016-.128 1.034-1.484c.02-1.357-1.034-1.52-1.034-1.52z" fill="none" stroke-width="2" stroke="#dfdfdf"/><path d="M17.69 15.622s.667.194 1.054.384c.134.066.366.197.534.37.164.168.244.339.244.339L22.146 21l-4.242.002-1.983-3.607c-.299-.529-.847-1.075-1.16-1.41h-.804L13.958 21 10 21.001V9h7.538s3.433.06 3.433 3.223-3.28 3.399-3.28 3.399zm-1.632-4.632l-2.068-.001-.001 3.006h2.069s1.016-.128 1.034-1.484c.02-1.357-1.034-1.52-1.034-1.52z" fill="#266abe" fill-rule="evenodd"/></svg>